<svg aria-hidden="true" style="position:absolute;width:0;height:0" xmlns="http://www.w3.org/2000/svg" overflow="hidden"><defs><symbol id="icon-tagline" viewBox="0 0 32 32"><path d="M16.09 15.4a1.16 1.16 0 01-.2-.73v-1.08c0-.33.06-.57.2-.75s.37-.25.7-.25c.3 0 .53.07.66.21.14.2.21.42.2.65v.25h-.56v-.25c0-.09 0-.17-.02-.25a.25.25 0 00-.08-.15.3.3 0 00-.18-.06h-.02-.03a.31.31 0 00-.19.06.29.29 0 00-.08.16l-.03.27v1.35c0 .11.03.22.08.32a.3.3 0 00.1.09c.05.01.1.02.15.01.07.01.14-.01.2-.05a.3.3 0 00.08-.16l.02-.26v-.27h.55v.24c.02.25-.05.48-.19.68-.13.16-.34.24-.66.24-.33 0-.57-.09-.7-.26zm2.32.02c-.15-.17-.22-.41-.22-.73v-1.14c0-.32.07-.56.21-.72.15-.16.38-.24.71-.24.32 0 .56.08.7.24s.21.4.21.72v1.13c0 .32-.07.56-.21.73s-.38.26-.7.26c-.33 0-.57-.09-.7-.26zm.96-.27c.05-.1.07-.22.06-.34v-1.38a.63.63 0 00-.06-.32.27.27 0 00-.11-.1.28.28 0 00-.15-.01h-.04a.28.28 0 00-.22.1.7.7 0 00-.07.33v1.39c0 .11.02.23.07.33.06.07.15.11.25.11.11 0 .2-.04.27-.1v-.01zm1.32-2.53h.6l.45 2.09.46-2.09h.58l.06 3.01h-.43l-.04-2.09-.45 2.09h-.34l-.46-2.1-.05 2.1h-.43l.05-3zm2.82 0h.94c.54 0 .8.3.8.86 0 .54-.28.81-.84.81h-.32v1.34h-.57v-3zm.8 1.29h.05c.1 0 .2-.04.27-.1.07-.1.1-.22.08-.34 0-.09 0-.18-.02-.27a.24.24 0 00-.12-.14.57.57 0 00-.26-.05h-.22v.9h.22zm1.78-1.29h.62l.63 3.01h-.54l-.12-.7h-.55l-.13.7h-.55l.64-3zm.53 1.97l-.22-1.26-.21 1.26h.43zm1.23-1.97h.4l.78 1.72v-1.72h.48v3h-.39l-.77-1.78v1.79h-.5v-3.01zm2.78 1.86l-.64-1.85h.54l.4 1.2.35-1.2h.53l-.63 1.85v1.15h-.56v-1.15zm-13.66 2.46v.16h-.46v1.22h-.2V17.1h-.47v-.16h1.13zm1.48 1.38h-.15c-.02 0-.03 0-.04-.02a.07.07 0 01-.03-.02l-.14-.33h-.65l-.13.32a.1.1 0 01-.03.04.06.06 0 01-.04.02h-.15l.57-1.38h.2l.59 1.37zm-.95-.51h.54l-.23-.56a.97.97 0 01-.04-.12v-.01l-.03.07-.02.06-.22.56zm1.95.37h.1a.6.6 0 00.18-.04l.07-.03v-.31h-.23l-.03-.01v-.13h.44v.52a.84.84 0 01-.38.14l-.18.01a.77.77 0 01-.52-.2.66.66 0 01-.2-.47v-.03c0-.1.01-.2.05-.28.07-.17.2-.3.38-.36.1-.04.2-.06.31-.06.1 0 .2.02.3.05.08.03.15.07.21.13l-.06.08-.01.02h-.07a.66.66 0 00-.37-.11h-.01a.68.68 0 00-.23.03.54.54 0 00-.17.1.55.55 0 00-.1.18.71.71 0 000 .46.5.5 0 00.51.31zm1.83-.02h.63v.16h-.82v-1.38h.2v1.22zm1.29.16h-.2v-1.38h.2v1.38zm.73-1.37l.03.02.84 1.04v-1.08h.17v1.39h-.14a.12.12 0 01-.03-.03l-.84-1.04v1.07h-.17v-1.38h.14zm2.5 0v.14h-.7v.46h.56v.14h-.56v.47h.7v.16h-.9v-1.38h.9zM5.13 8.42l8.75 2.36v8.24l-8.75-2.35V8.43zm-.56-.7v9.35l9.87 2.65v-9.35L4.58 7.73z"/><path d="M9.87 24.07L0 21.4v-9.34l9.87 2.65v9.35z"/><path d="M4.75 8.33l8.63 2.32-3.67 3.48-8.64-2.33 3.68-3.47zm-.17-.6L0 12.07l9.87 2.65 4.58-4.34-9.87-2.65zm5.85 15.81l4.02-3.8-4.02-1.1v4.9z"/></symbol><symbol id="icon-brand" viewBox="0 0 32 32"><path d="M2.44 24.56c.12.15.19.35.18.54v.05c0 .26-.11.49-.29.65-.24.18-.54.27-.84.25h-1.5v-3.47h1.46c.29-.02.58.06.81.23.18.14.28.36.28.6v.05a.82.82 0 01-.16.53.8.8 0 01-.45.27c.2.04.38.14.5.3zm-1.75-.53h.62a.6.6 0 00.4-.11.41.41 0 00.14-.3v-.04-.02a.42.42 0 00-.14-.32.59.59 0 00-.41-.12H.7v.91zm1.08 1.34c.1-.08.15-.2.15-.32V25v-.03a.44.44 0 00-.15-.32.63.63 0 00-.42-.13H.69v.96h.66c.15 0 .3-.04.42-.12zm3.64.68l-.81-1.36h-.3v1.36h-.7v-3.47H5c.31 0 .6.1.83.3a1.1 1.1 0 01.1 1.43c-.17.19-.4.31-.64.35l.87 1.39H5.4zM4.3 24.22h.57c.4 0 .6-.18.6-.52v-.03a.52.52 0 00-.16-.36.58.58 0 00-.45-.15h-.58v1.06zm4.92 1.13h-1.4l-.24.7h-.73l1.28-3.43h.79l1.27 3.43h-.74l-.23-.7zm-.19-.53l-.51-1.46-.5 1.46h1.01zm4.95 1.23h-.7l-1.54-2.36v2.36h-.7v-3.47h.7l1.55 2.37v-2.38h.7v3.47zm3.95-.83c-.15.26-.37.48-.63.61-.3.16-.63.23-.97.22H15.1v-3.47h1.23c.33-.01.67.06.97.22.26.13.48.34.63.6a2 2 0 01-.01 1.83zm-.8-.09a1.27 1.27 0 000-1.65 1.2 1.2 0 00-.87-.3h-.47v2.25h.48c.32.02.63-.08.87-.3zM9.65 3.25s8.92 3.39 8.73 8.28v8.28s-8.92-3.39-8.73-8.28V3.25zm16.68 14.62a12.16 12.16 0 015.67-2.1v-2.6a11.73 11.73 0 00-5.64 4.65l-.03.05z"/><path d="M25.32 18.65a12.2 12.2 0 016.6-5.98l.08-.03V5.17S19.3 10 19.56 16.96v11.79s.57-.22 1.46-.62c0-.38 0-.76.04-1.14a12.26 12.26 0 014.24-8.32l.02-.02z"/><path d="M24.1 23.03c.08-.82.22-1.63.45-2.42a11.34 11.34 0 00-2.69 7.11v.02c1.04-.5 1.84-.93 2.62-1.4l-.18.1a11.9 11.9 0 01-.19-3.46v.05zm.51.04c-.08 1.03-.02 2.08.17 3.1 3.47-2.1 7.37-5.32 7.21-9.2v-.35c-2.58.3-4.86 1.43-6.6 3.1-.4.99-.68 2.12-.77 3.31v.04z"/></symbol><symbol id="icon-fosterpeters" viewBox="0 0 32 32"><path d="M4.96 12.53h-.02c-.9 0-1.61.72-1.62 1.6 0 .88.74 1.6 1.64 1.6S6.6 15 6.6 14.13s-.74-1.6-1.64-1.6zm12.1-.51c0-1.22-.5-2.4-1.4-3.26a4.8 4.8 0 00-6.7 0 4.56 4.56 0 00-1.4 3.26v6.76s9.5-1.03 9.5-6.76zM0 20.99c0 .85.35 1.67.97 2.27a3.34 3.34 0 004.66 0c.6-.57.97-1.38.97-2.27v-4.7S0 17.02 0 21zm3.3.84a.88.88 0 01-.48-.14.83.83 0 01-.13-1.3.87.87 0 01.95-.17h-.01a.83.83 0 01.28 1.37.86.86 0 01-.6.25H3.3zm6.74-.52h-.68v.7h-.35v-1.7h1.11v.28h-.76v.44h.68v.28zm1.68-.12c0 .17-.02.32-.08.45-.11.23-.34.4-.62.4H11h-.02a.68.68 0 01-.62-.4.99.99 0 01-.09-.4v-.12c0-.17.03-.32.1-.45.1-.23.34-.4.61-.4H11a.7.7 0 01.64.4c.06.13.08.28.08.44v.08zm-.35-.07a.7.7 0 00-.1-.4.31.31 0 00-.26-.15H11c-.12 0-.21.05-.28.14s-.1.23-.1.4v.08c0 .18.04.31.1.41s.16.14.28.14a.3.3 0 00.27-.13c.07-.1.1-.23.1-.41v-.08zm1.5.44c0-.06-.03-.12-.07-.15a.86.86 0 00-.25-.11 2.32 2.32 0 01-.3-.12c-.19-.1-.29-.24-.29-.42 0-.1.03-.18.08-.25s.13-.13.22-.17a.86.86 0 01.66 0c.17.08.3.26.3.46h-.35c0-.07-.03-.13-.08-.18a.3.3 0 00-.18-.06h-.03-.01a.32.32 0 00-.19.06.17.17 0 00-.07.14c0 .05.03.1.09.14.05.04.14.07.24.1.2.06.35.14.44.23.1.09.14.2.14.33 0 .15-.06.26-.17.35a.77.77 0 01-.45.12h-.01a.89.89 0 01-.36-.07h.01a.5.5 0 01-.33-.48v-.01h.35c0 .19.12.28.34.28.08 0 .15-.01.2-.05.04-.03.06-.08.06-.14zm1.87-.97h-.52V22h-.35v-1.42h-.52v-.29h1.39v.29zm1.23.68h-.67v.46h.79V22h-1.15v-1.7h1.14v.28h-.78V21h.67v.28zm.96.12h-.28V22h-.36v-1.7h.64c.2 0 .36.04.46.13.11.09.17.22.17.38 0 .12-.03.21-.08.3a.49.49 0 01-.23.18l.37.7h-.38l-.32-.62zm-.28-.29h.28c.09 0 .16-.02.2-.07.05-.04.08-.1.08-.17v-.01a.26.26 0 00-.07-.2c-.05-.04-.12-.06-.21-.06h-.28v.51zm2.13.3v.6h-.36v-1.7h.67c.13 0 .24.03.34.07.1.05.17.12.22.2.05.09.08.19.08.3 0 .17-.06.3-.17.4a.75.75 0 01-.48.14h-.3zm0-.28h.3c.1 0 .17-.02.22-.06.05-.04.08-.1.08-.19v-.01a.28.28 0 00-.08-.2.28.28 0 00-.2-.07h-.32v.53zm2.22.15h-.68v.46h.8V22h-1.15v-1.7h1.14v.28h-.79V21H21v.28zm1.63-.68h-.52v1.42h-.35v-1.42h-.52v-.29h1.4v.29zm1.23.68h-.68v.46h.8V22h-1.15v-1.7h1.14v.28h-.79V21h.68v.28zm.96.11h-.28v.63h-.36v-1.7h.64c.2 0 .36.04.46.13.11.09.16.22.16.38 0 .12-.02.21-.07.3a.53.53 0 01-.23.18l.37.7h-.37l-.32-.62zm-.28-.28h.28c.08 0 .16-.02.2-.07.05-.04.08-.1.08-.17v-.01a.27.27 0 00-.07-.2.3.3 0 00-.21-.06h-.28v.51zm2.06.46a.18.18 0 00-.07-.15.86.86 0 00-.25-.11 2.23 2.23 0 01-.3-.12c-.19-.1-.28-.24-.28-.42 0-.1.02-.18.08-.25s.12-.13.22-.17a.87.87 0 01.65 0c.18.08.3.26.3.46h-.35a.24.24 0 00-.07-.18.3.3 0 00-.19-.06h-.02-.02a.32.32 0 00-.18.06.17.17 0 00-.07.14c0 .05.03.1.08.14.06.04.14.07.25.1.2.06.34.14.44.23.09.09.13.2.13.33 0 .15-.05.26-.17.35a.75.75 0 01-.44.12h-.02a.89.89 0 01-.35-.07.5.5 0 01-.32-.48v-.01H26c0 .19.1.28.34.28.08 0 .14-.01.19-.05a.16.16 0 00.07-.14z"/></symbol><symbol id="icon-company" viewBox="0 0 32 32"><path d="M5.47 31.1l.06.03.15.15c-.12.14-.27.24-.43.31-.2.07-.4.12-.61.11-.2 0-.4-.03-.58-.1-.33-.13-.59-.4-.7-.72l-.01-.01a1.57 1.57 0 010-1.16v.01c.15-.34.42-.6.75-.73h.01a1.62 1.62 0 011.15 0c.14.05.3.14.41.25l-.13.17-.03.03a.08.08 0 01-.05.01.1.1 0 01-.06-.02l-.07-.05-.1-.06c-.14-.07-.3-.12-.48-.12H4.7a1.02 1.02 0 00-.77.3c-.1.1-.16.21-.21.34a1.42 1.42 0 000 .91c.05.13.12.24.21.34.1.1.2.17.32.21.12.05.26.08.4.08.07 0 .15 0 .23-.02.2-.02.37-.1.5-.24a.11.11 0 01.08-.03zm4.42-.8a1.37 1.37 0 01-.4 1.01c-.12.12-.28.22-.44.28a1.68 1.68 0 01-1.18 0h.01a1.3 1.3 0 01-.74-.73 1.58 1.58 0 010-1.15v.01a1.28 1.28 0 01.75-.73c.36-.13.78-.13 1.15 0 .34.14.6.4.74.72v.01c.08.19.11.38.11.58zm-.4 0c0-.15-.02-.3-.08-.46a.9.9 0 00-.52-.55 1.2 1.2 0 00-.86 0 .9.9 0 00-.52.55c-.1.3-.1.61 0 .91a.9.9 0 00.52.55c.28.1.58.1.86 0a.9.9 0 00.51-.54c.07-.16.09-.3.08-.46zm3.41.47l.04.1.05-.1.05-.1.98-1.7c.01-.02.03-.04.05-.04l.06-.01h.32v2.75h-.35v-2.2l-.99 1.71a.16.16 0 01-.05.07.16.16 0 01-.08.02H12.92c-.03 0-.06 0-.08-.02a.15.15 0 01-.06-.07l-1.01-1.73v2.21h-.34v-2.75h.3l.07.01c.02.02.05.03.05.06l1 1.7.05.09zm3.69-.13v1.03h-.39v-2.75h.86c.16 0 .32.01.47.06a.8.8 0 01.34.17.7.7 0 01.2.27c.04.11.07.23.06.35a.83.83 0 01-.28.63c-.1.07-.21.15-.34.18-.13.04-.28.07-.44.07h-.02l-.46-.01zm0-.3h.46c.1 0 .2-.01.3-.04.07-.03.15-.07.21-.12.06-.05.1-.1.13-.18a.6.6 0 00.04-.23v-.03a.5.5 0 00-.17-.38.75.75 0 00-.52-.15h-.45v1.13zm5.14 1.33h-.3-.01c-.03 0-.06 0-.08-.02a.18.18 0 01-.05-.06l-.26-.68h-1.3l-.27.67a.14.14 0 01-.05.06.14.14 0 01-.09.03h-.3l1.15-2.75h.4l1.16 2.75zm-1.9-1.02h1.09l-.46-1.12a1.84 1.84 0 01-.08-.25v-.01l-.05.15-.49 1.23zm3.55-1.72l.06.05 1.68 2.08v-2.14h.34v2.75h-.2l-.07-.01a.21.21 0 01-.06-.05l-1.67-2.08v2.14h-.35v-2.75h.2l.08.01zm4.9 1.65v1.1h-.38v-1.1l-1.06-1.66h.34c.03 0 .06 0 .08.02l.06.06.66 1.07c.04.07.08.15.1.24h.01l.05-.11.07-.13.65-1.08a.28.28 0 01.05-.05.12.12 0 01.08-.03h.35l-1.06 1.67zm-15.56-6.29l.5.05c2.6-1.11 4.74-2.9 6.25-5.13l.04-.05a13.12 13.12 0 002.23-7.63v.01l-2.85-2.71c.58 2.87.3 5.83-.78 8.57-1.16 2.82-3.01 5.15-5.35 6.86l-.04.03z"/><path d="M11.7 24.16l.07.02a15.42 15.42 0 005.66-7l.04-.1a14.57 14.57 0 00.5-9.03l.02.1-4.05-3.86a17.85 17.85 0 01-2.26 19.9l.02-.03zm13.75-9.43a14.03 14.03 0 01-4.74 7.59l-.03.02c-.7.58-1.47 1.1-2.27 1.55 2.04-.58 3.8-1.56 5.29-2.85l-.02.01a12.76 12.76 0 003.38-4.68l.04-.08-1.65-1.56z"/><path d="M24.8 14.29l-2.34-2.23a13.68 13.68 0 01-2.23 7.24l.03-.05a14.78 14.78 0 01-5.64 5.1l-.09.03h.02c.52 0 1.04-.02 1.57-.08a14.47 14.47 0 005.65-3.95l.01-.01a13.4 13.4 0 003-5.97l.02-.08zM12.04 2.66L9.24 0a13.28 13.28 0 00-6.13 4.6l-.03.04a12.16 12.16 0 00-2.34 7.14 12.24 12.24 0 002.85 7.78l-.02-.02A13.38 13.38 0 0010.72 24l.1.02a17.6 17.6 0 004.3-11.46c0-3.7-1.15-7.13-3.12-9.95l.04.05zm19.22 11.22a12.32 12.32 0 00-3.89-8.9 13.57 13.57 0 00-14.2-2.84l.1-.03 17.1 16.29c.59-1.45.9-2.98.89-4.52z"/></symbol><symbol id="icon-taglinehere" viewBox="0 0 32 32"><path d="M14.14 1.8h.08l.5.03c.73.06 1.46.17 2.17.34V.4c-.95-.25-2.03-.4-3.15-.4h-.27c-1.52 0-3.04.2-4.51.58a18.26 18.26 0 00-4.88 1.99l.09-.05V20a19.6 19.6 0 018.34-2.37h.11l.65-.02v-1.78a21.1 21.1 0 00-6.86 1.21l.15-.04-.62.2V3.6l.26-.13a17.14 17.14 0 017.26-1.68h.3l.38.02z"/><path d="M18.53 3.65h-.01c-1.21 0-2.39-.14-3.52-.39l.1.02v17.27a14 14 0 003.44.4 18.6 18.6 0 009.4-2.57l-.1.05V1.26a19.05 19.05 0 01-4.43 1.76l-.14.03c-1.55.4-3.13.6-4.73.6zm6.91.3l.61-.2v13.62l-.26.13a16.84 16.84 0 01-8.52 1.62h.05l-.43-.04V5.07l.5.03a21.04 21.04 0 008.2-1.2l-.16.05zM5.38 25.98a.92.92 0 00-.66-.28h-.04c-.13 0-.27.02-.4.07a.93.93 0 00-.58.9v2.35c0 .16.02.32.09.47a1 1 0 00.23.31c.1.08.2.14.32.17s.24.05.36.05a.98.98 0 00.96-.99v-.25h-.61v.2a.4.4 0 01-.03.2.36.36 0 01-.1.14.42.42 0 01-.24.09h-.04a.3.3 0 01-.25-.12.55.55 0 01-.09-.3v-2.2c0-.12.03-.24.08-.34a.3.3 0 01.3-.14c.11 0 .2.05.27.13.06.08.1.19.1.3v.21h.6v-.24c0-.29-.1-.54-.27-.74zM9 25.95a1.08 1.08 0 00-1.06-.19.97.97 0 00-.31.19 1.02 1.02 0 00-.33.78v2.24c0 .16.02.31.09.46.05.12.13.23.24.3.09.1.2.17.32.21a1.06 1.06 0 00.73 0 .96.96 0 00.64-.9v-2.31-.04a1 1 0 00-.32-.74zm-.28 3.02a.39.39 0 01-.12.32.45.45 0 01-.58 0A.4.4 0 017.9 29v-2.27a.39.39 0 01.13-.32.45.45 0 01.57 0 .4.4 0 01.12.29v2.27zm5.05 1v-4.25h-.6l-.76 2.25h-.02l-.77-2.25h-.58v4.24h.6v-2.58h.02l.59 1.83h.3l.6-1.83v2.58h.62zm3.44-3.94a.78.78 0 00-.35-.23 1.31 1.31 0 00-.42-.07h-.92v4.24h.6V28.3h.32c.19 0 .37-.03.54-.11.25-.16.42-.4.47-.7a2.92 2.92 0 00-.03-1.1v.02a.9.9 0 00-.21-.4zm-.31 1.3c0 .07-.03.14-.06.2a.32.32 0 01-.16.16.6.6 0 01-.27.06H16.12V26.3h.31c.1 0 .18.01.28.06.06.03.1.08.14.15a.6.6 0 01.05.23v.58zm3.16-1.6h-.49l-.92 4.24h.6l.18-.91h.82l.18.9h.6l-.96-4.23zm-.55 2.75l.3-1.54.3 1.54h-.6zm4.46-.2h-.01l-.91-2.55h-.58v4.24h.6v-2.55h.01l.92 2.55h.57v-4.25h-.6v2.56zm3.7-2.55l-.5 1.68-.5-1.68h-.63l.83 2.45v1.78h.6v-1.78l.83-2.45h-.64zM3.68 31.16H4v.82h.2v-.82h.28V31H3.7v.16zM6.14 31l-.38.98h.2l.09-.22h.4l.07.22h.22L6.35 31h-.2zm-.03.6l.13-.38.14.37H6.1zm2.44.02h.24v.12a.38.38 0 01-.24.09h-.01a.25.25 0 01-.2-.1.4.4 0 01-.07-.23v-.02c0-.22.1-.33.29-.33h.01c.1 0 .18.07.2.15l.2-.03c-.04-.2-.18-.3-.41-.3h-.02a.5.5 0 00-.33.13.48.48 0 00-.14.39c0 .13.04.26.12.36.1.1.21.15.35.15h.03a.6.6 0 00.42-.16v-.39h-.43v.17zm2.48-.62h-.2v.98h.69v-.16h-.5V31zm2.09 0h-.2v.98h.2V31zm2.04.66l-.4-.66h-.2v.98h.2v-.64l.38.64h.2V31h-.18v.65zm1.85-.1h.5v-.18H17v-.22h.52V31h-.72v.98h.75v-.16H17v-.27zm4.47-.17h-.38v-.4h-.2v1h.2v-.44h.38v.43h.2V31h-.2v.38zm1.86.16h.5v-.17h-.5v-.22h.53V31h-.73v.98h.75v-.16h-.55v-.27zm2.52 0c.17-.03.26-.12.26-.28a.23.23 0 00-.1-.21.55.55 0 00-.25-.06H25.32v.98h.2v-.41h.03c.04 0 .09 0 .12.03.03.01.07.04.08.07l.21.3h.24l-.13-.18a.64.64 0 00-.21-.24zm-.2-.14h-.15v-.24h.16c.07 0 .14 0 .2.02.03.02.05.06.05.1 0 .04-.02.08-.05.1a.56.56 0 01-.17.03h-.04zm2.1.14h.49v-.17h-.5v-.22h.54V31h-.73v.98h.75v-.16h-.56v-.27z"/></symbol><symbol id="icon-yaco" viewBox="0 0 32 32"><path  d="M5.44 0l4.67 4.43h13.06v12.35l4.67 4.42V0H5.44z"/><path d="M1.6 4.24v20.6h21.76v-8.2L10.26 4.25H1.6zm17.61 17.58H5.04V7.97h1V20.9h13.17v.94zM7.87 28.66l.51-1.08h.45l-.77 1.44v.84h-.4v-.84l-.76-1.44h.45l.52 1.08zm2.24.67h-.88l-.18.53h-.42l.87-2.28h.35l.86 2.28h-.41l-.19-.53zm-.77-.32H10l-.33-.95-.33.95zm2.33.23c0-.11.03-.2.09-.29.05-.09.17-.19.34-.31a1.41 1.41 0 01-.2-.27v-.01a.56.56 0 01-.04-.22v-.01c0-.17.05-.32.16-.42s.26-.16.44-.16h.02c.15 0 .28.06.38.15.11.1.16.22.16.36 0 .1-.02.18-.07.26a.93.93 0 01-.23.24l-.16.11.44.52a.9.9 0 00.1-.42h.33c0 .29-.07.52-.2.7l.33.39h-.44l-.13-.15a.92.92 0 01-.57.18.78.78 0 01-.55-.18.6.6 0 01-.2-.45v-.02zm.75.35c.14 0 .26-.05.36-.13l-.5-.59-.04.04c-.13.1-.2.2-.2.32 0 .1.04.19.11.25.07.07.16.1.27.1zm-.2-1.48c0 .1.05.21.16.34l.17-.12.05-.03a.3.3 0 00.1-.23.2.2 0 00-.07-.15.23.23 0 00-.16-.06h-.02a.24.24 0 00-.17.07.27.27 0 00-.06.18v.01zm4.13 1.01a.8.8 0 01-.27.57.95.95 0 01-.62.2h-.02a.9.9 0 01-.47-.13.86.86 0 01-.31-.36 1.3 1.3 0 01-.12-.54V28.63c0-.21.04-.4.12-.57a.86.86 0 01.82-.5c.24 0 .44.06.6.2.15.13.24.32.26.57h-.39c-.01-.16-.06-.28-.14-.35a.49.49 0 00-.34-.1c-.17 0-.3.06-.4.18a.9.9 0 00-.13.55v.2c0 .25.04.44.12.57.1.12.22.19.39.19.16 0 .27-.04.36-.1.07-.07.12-.2.14-.35h.4zm2.17-.34c0 .22-.04.42-.12.59a.89.89 0 01-.33.38 1 1 0 01-1 0 .9.9 0 01-.32-.38 1.33 1.33 0 01-.12-.56v-.15c0-.22.04-.41.12-.58.08-.17.2-.3.33-.39.14-.1.3-.14.5-.14h.02c.36 0 .66.21.8.51v.01c.08.17.12.36.12.58v.13zm-.4-.12a.97.97 0 00-.14-.58.47.47 0 00-.39-.2h-.02c-.17 0-.3.06-.4.2a.98.98 0 00-.14.57v.12c0 .26.05.45.14.59.1.14.23.2.4.2.18 0 .32-.06.4-.2.1-.13.16-.32.16-.58v-.12z"/></symbol><symbol id="icon-linkedin" viewBox="0 0 32 32"><path d="M32 32V20.26c0-5.73-1.23-10.16-7.95-10.16h-.26a6.96 6.96 0 00-6 3.42l-.01.03h-.1v-2.91H11.3V32h6.64V21.42c0-2.78.53-5.49 3.97-5.49 3.4 0 3.45 3.19 3.45 5.67V32H32zM.53 10.64h6.64V32H.53V10.64zM3.84 0A3.84 3.84 0 000 3.84v.02a3.87 3.87 0 003.84 3.87 3.87 3.87 0 000-7.73z"/></symbol><symbol id="icon-facebook" viewBox="0 0 32 32"><path d="M21.33 5.31h2.93V.22C23.74.16 22.02 0 20 0c-4.22 0-7.1 2.66-7.1 7.52V12H8.26v5.68h4.64V32h5.7V17.7h4.46l.7-5.7h-5.17V8.08c0-1.65.45-2.77 2.74-2.77z"/></symbol><symbol id="icon-twitter" viewBox="0 0 32 32"><path  d="M32 6.08c-1.18.53-2.46.86-3.78 1.04a6.46 6.46 0 002.88-3.63 13.95 13.95 0 01-4.16 1.6 6.54 6.54 0 00-11.37 4.45c0 .54.06 1.06.18 1.56v-.04A18.55 18.55 0 012.26 4.23l-.03-.04a6.6 6.6 0 001.98 8.75l.02.02a6.3 6.3 0 01-2.96-.8v.06c0 3.2 2.27 5.84 5.26 6.45a6.41 6.41 0 01-3.01.1l.04.01a6.64 6.64 0 006.13 4.56h.01a13.1 13.1 0 01-9.77 2.73H0a18.29 18.29 0 0010 2.95h.07c12.08 0 18.67-10 18.67-18.67 0-.29 0-.58-.03-.85A13.1 13.1 0 0032 6.1z"/></symbol><symbol id="icon-instagram" viewBox="0 0 32 32"><path  d="M31.97 9.4c-.03-1.4-.3-2.73-.76-3.96l.02.08a7.86 7.86 0 00-1.85-2.83A7.95 7.95 0 0026.54.85 11.48 11.48 0 0022.67.1h-.01a104.86 104.86 0 00-6.69-.1h.1c-4.36 0-4.9.02-6.6.1C7.76.16 6.6.45 5.58.83A8 8 0 002.75 2.7 8 8 0 00.9 5.52 11.47 11.47 0 00.16 9.4a104.86 104.86 0 00-.1 6.69V16c0 4.35 0 4.9.08 6.6.03 1.4.3 2.73.78 3.96l-.02-.08a7.78 7.78 0 001.85 2.83 8 8 0 002.83 1.86c1.01.38 2.18.65 3.88.73 1.7.08 2.24.1 6.59.1s4.9-.02 6.6-.1c1.4-.02 2.73-.29 3.96-.76l-.08.03a8.24 8.24 0 004.67-4.64l.02-.05c.38-1.02.67-2.18.73-3.89.08-1.7.1-2.24.1-6.59 0-4.34 0-4.88-.08-6.6zm-2.88 13.08a8.54 8.54 0 01-.55 2.96 5.34 5.34 0 01-3 3.03l-.04.01c-.56.22-1.42.48-2.97.54-1.68.08-2.2.1-6.47.1a106.97 106.97 0 01-6.7-.1h.24a8.45 8.45 0 01-2.96-.54 4.96 4.96 0 01-1.84-1.2c-.52-.5-.93-1.1-1.19-1.79l-.01-.03a8.64 8.64 0 01-.54-2.98 108.67 108.67 0 01-.1-6.55v.09c0-4.28.02-4.79.1-6.47.06-1.57.32-2.4.54-2.97.26-.7.66-1.32 1.2-1.83.5-.52 1.12-.93 1.8-1.19h.04c.56-.23 1.4-.49 2.98-.55 1.68-.08 2.19-.1 6.44-.1 4.3 0 4.8 0 6.47.1 1.57.06 2.4.32 2.97.54.7.26 1.33.66 1.84 1.2.53.51.95 1.14 1.2 1.83.21.57.48 1.42.55 2.97.08 1.68.1 2.2.1 6.47s-.02 4.76-.1 6.46z"/><path  d="M16.06 7.78a8.22 8.22 0 100 16.44 8.22 8.22 0 100-16.44zm0 13.55a5.33 5.33 0 110-10.66 5.33 5.33 0 110 10.66zM26.53 7.46a1.92 1.92 0 01-3.84 0 1.92 1.92 0 013.84 0z"/></symbol><symbol id="icon-astronaut" viewBox="0 0 32 32"><path fill="var(--color2, #2196f3)" d="M31.97 4.53a.54.54 0 00-.43-.37l-1.9-.27-.86-1.74c-.18-.36-.78-.36-.96 0l-.85 1.74-1.9.27a.54.54 0 00-.3.92l1.38 1.34-.33 1.9v.09a.53.53 0 00.78.47l1.7-.9 1.71.9a.53.53 0 00.78-.57v.01l-.33-1.9 1.39-1.35c.14-.14.2-.35.13-.55zm-2.46 1.32a.53.53 0 00-.15.47l.19 1.12-1-.53a.52.52 0 00-.5 0l-1 .53.2-1.12a.53.53 0 00-.16-.47l-.81-.79 1.12-.16a.54.54 0 00.4-.3l.5-1 .5 1c.08.16.23.27.4.3l1.12.16-.8.8zm-3.38 14.68h-1.06v1.06h1.07v-1.07zm0 2.13h-1.06v1.06h1.07v-1.06zm1.07-1.07h-1.06v1.07h1.06v-1.07zm-2.13 0H24v1.07h1.06v-1.07zm-2.67 4.8h-1.06v1.07h1.06v-1.07zm0 2.14h-1.06v1.06h1.06v-1.07zm1.07-1.07H22.4v1.06h1.06v-1.06zm-2.13 0h-1.07v1.06h1.07v-1.06zM16 24.26h-1.06v1.06H16v-1.06zm0 2.13h-1.06v1.07H16v-1.07zm1.07-1.06H16v1.06h1.06v-1.07zm-2.13 0h-1.07v1.06h1.07v-1.07zM5.87 6.13H4.8v1.06h1.07V6.12zm0 2.13H4.8v1.06h1.07V8.26zm1.06-1.07H5.86v1.07h1.07V7.19zm-2.13 0H3.74v1.07H4.8V7.19z"/><path fill="var(--color3, #212121)" d="M24.71 14.16c-.28-.38-.7-.64-1.18-.7a1.77 1.77 0 00-1.34.35l-1.25.96-1.9 1.41-1.36-.54A6.93 6.93 0 0014.83 2.4a6.95 6.95 0 00-5.84 10.7l-2.77-.03H6.2c-.06 0-.1.02-.16.03l-.03.02h-.03l-3.23 1.6-1.9.91a1.78 1.78 0 001.8 3.09h-.02l1.39-.73 2.26-1.17 1.36-.01-6.78 6.76a1.64 1.64 0 000 2.35 1.66 1.66 0 002.36 0l1.3-1.31 1.75-1.3.9.9-1.76 1.75-1.34 1.33a1.64 1.64 0 000 2.36 1.66 1.66 0 002.36 0l3.48-3.47 1.01-1 .02-.03 5.16-5.66 3.48.5h.06a.5.5 0 00.2-.03l.05-.03.06-.02 3.21-2.13.03-.04.04-.02 1.27-1.2a1.78 1.78 0 00.2-2.36h.01zm-22.58 3.6a.72.72 0 01-.78-1.2l1.32-.63.32.92.13.4-.99.52zm3.5-1.82l-1.55.8-.26-.74-.18-.54 2.03-1-.04 1.48zm15.1-6.61a5.8 5.8 0 01-.6 2.56l-4.18-1.9a1.86 1.86 0 00-.78-1.39h-.01l1.46-4.86a5.87 5.87 0 014.1 5.59zm-11.8 0a5.89 5.89 0 016.68-5.82h-.03l-1.44 4.75h-.05c-1.03 0-1.87.83-1.87 1.86a1.87 1.87 0 003.48.93l3.87 1.75A5.9 5.9 0 018.93 9.33zm5.96.8a.8.8 0 11-1.61 0 .8.8 0 011.61 0zM2.47 25.15a.61.61 0 01-.86 0 .6.6 0 010-.85l.96-.96.86.85-.97.95zm3.21 3.73a.6.6 0 01-.85-.84l.96-.96.4.4.45.45-.96.95zm3.49-3.47L7.4 27.17l-.85-.85 1.76-1.75.1-.14.02-.04a.37.37 0 00.02-.12l.02-.08-.02-.1-.02-.1a.7.7 0 00-.09-.14l-.03-.04-1.6-1.6-.06-.03c-.03-.03-.06-.05-.1-.06a.5.5 0 00-.08-.03.47.47 0 00-.1-.02h-.1l-.1.02a.31.31 0 00-.1.05l-.06.02-1.77 1.33-.9-.9 2.4-2.39 4.36 4.3-.93.91zm6.81-7.02h-.07a.52.52 0 00-.35.14l-.05.03-4.7 5.15-4.32-4.25 2.83-2.83c.1-.1.16-.23.16-.37 0-.3-.24-.54-.53-.54l-2.23.01.03-1.6 3.1.02a6.93 6.93 0 006.31 1.97l-.04.01c.03.03.08.07.13.09l2.4.96.16.76.18.88-3-.42zm4.04.18l-.3-1.55 1.44-1.08.38.5.56.75-2.08 1.38zm3.76-2.83l-.84.79-.93-1.24.83-.64a.73.73 0 01.55-.14.72.72 0 01.4 1.23z"/><path fill="var(--color3, #212121)" d="M13.6 18.55l-2.14-2.14a.53.53 0 00-.75 0l-2.15 2.14a.53.53 0 000 .75l2.15 2.13a.53.53 0 00.75 0l2.14-2.13a.53.53 0 000-.75zm-2.51 1.75l-1.4-1.37 1.39-1.39 1.39 1.39-1.4 1.38zm6.08-15.23l-.27 1.04c.08.01 1.74.45 1.74 2.15h1.07c0-2.02-1.67-2.97-2.54-3.19zm2.54 4.26h-1.07v1.06h1.07V9.32z"/></symbol><symbol id="icon-diagram" viewBox="0 0 32 32"><path fill="var(--color2, #2196f3)" d="M14.93 14.97h1.06v4.8h-1.06v-4.8zm4.26 2.13h1.07v2.66h-1.07V17.1zm-8.53 1.6h1.07v1.06h-1.07V18.7zm-3.2-.54h1.07v1.6H7.46v-1.6z"/><path fill="var(--color3, #212121)" d="M1.6 28.3h25.59c.88 0 1.6-.72 1.6-1.6v-2.14c0-.89-.72-1.6-1.6-1.6h-.54V9.67l3.03-2.87a1.6 1.6 0 10-.75-.75v-.01L26.65 8.2V6.97c0-.88-.71-1.6-1.6-1.6H3.73c-.88 0-1.6.72-1.6 1.6v16H1.6c-.88 0-1.6.71-1.6 1.6v2.12c0 .89.72 1.6 1.6 1.6zM30.39 4.83h.04a.53.53 0 11-.05 1.06.54.54 0 010-1.06zM3.2 6.97c0-.3.24-.53.53-.53h21.32c.3 0 .54.23.54.53V9.2l-1.07 1.01V8.04c0-.3-.24-.54-.53-.54H4.8c-.3 0-.53.24-.53.54v13.32c0 .3.24.53.53.53H24c.29 0 .53-.23.53-.53V11.7l1.06-1.01v12.28H3.2v-16zM8 13.9h-.01a1.6 1.6 0 101.11 2.74l1.86.94c.21.1.47.05.63-.13l3.94-4.43 3.87 2.9c.21.16.5.14.69-.03l3.37-3.2v8.14H5.33V8.56h18.13v2.66l-3.78 3.57-3.9-2.92a.54.54 0 00-.72.07l-4 4.5-1.49-.75.03-.2c0-.88-.72-1.6-1.6-1.6zm.53 1.6a.53.53 0 11-1.07 0 .53.53 0 111.07 0zm3.2 8.53h5.32v.53c0 .3-.24.53-.53.53h-4.26a.54.54 0 01-.54-.53v-.53zm-10.67.53c0-.3.24-.53.54-.53h9.06v.53c0 .88.71 1.6 1.6 1.6h4.26c.89 0 1.6-.72 1.6-1.6v-.53h9.06c.3 0 .53.24.53.53v2.13c0 .3-.23.53-.53.53H1.6a.53.53 0 01-.53-.53v-2.13z"/></symbol><symbol id="icon-clock" viewBox="0 0 32 32"><path fill="var(--color3, #212121)" d="M31.3 15.3a15.3 15.3 0 10-20.07 14.55l.1.03a.68.68 0 00.54-.06c.14-.08.23-.2.28-.36l3.86-12.25a1.91 1.91 0 10-.85-3.63h.01l-5.1-5.1a.64.64 0 00-.9.9l5.1 5.1a1.87 1.87 0 00.53 2.3v.01l-3.68 11.67a14.04 14.04 0 1110.66-.38l-.09.03-.4-1.87a.64.64 0 00-1.05-.34l-3.83 3.42a.64.64 0 00.22 1.08l4.9 1.57a.64.64 0 00.82-.75l-.39-1.83a15.28 15.28 0 009.33-14.06v-.03zM16 14.66a.64.64 0 010 1.28.64.64 0 010-1.28zm2.1 14.87l2.18-1.95.6 2.84-2.8-.9z"/><path fill="var(--color2, #2196f3)" d="M15.36 3.19v1.33a.64.64 0 101.27-.06V3.18a.64.64 0 00-1.28 0zM3.88 14.66a.64.64 0 000 1.28h1.27a.64.64 0 000-1.28H3.87zm24.23 1.28a.64.64 0 000-1.28h-1.28a.64.64 0 000 1.28h1.28z"/></symbol><symbol id="icon-antenna" viewBox="0 0 32 32"><path fill="var(--color3, #212121)" d="M30.77 22.1l-8.44-8.5.94-4.62c.24.09.5.14.76.14h.03a2.16 2.16 0 10-2.03-1.42V7.7l-4.96.6L8.97.16A.54.54 0 008.6 0a.52.52 0 00-.37.15L6.7 1.65a.53.53 0 000 .76l.82.82a14.9 14.9 0 002.52 17.66c.04.05.09.08.14.1-.03.2-.05.38-.05.56v6.18h-6.4a2.67 2.67 0 00-2.67 2.67v1.06c0 .3.24.54.54.54h24.53c.3 0 .53-.24.53-.54V30.4c0-1.47-1.2-2.67-2.66-2.67h-6.4V25a14.79 14.79 0 0010.17-1.5l-.08.04.81.82c.1.1.24.16.38.16s.27-.06.37-.15l1.51-1.51a.53.53 0 000-.75zm-7.5-15.87A1.06 1.06 0 0125.1 7c0 .59-.47 1.06-1.06 1.06a1.07 1.07 0 01-.75-1.82zm-1.25 3.5l-.6 2.95-1.17-1.18 1.77-1.76zm-.6-.9l-1.92 1.91L18 9.25l3.4-.41zM24 28.8c.89 0 1.6.72 1.6 1.6v.54H2.14v-.54c0-.88.72-1.6 1.6-1.6H24zm-7.46-2.14v1.07H11.2v-1.07h5.34zM11.2 25.6v-4.05c0-1.3 1.2-2.35 2.67-2.35s2.66 1.05 2.66 2.35v4.05H11.2zm6.4-1.7v-2.35c0-1.88-1.67-3.41-3.73-3.41h-.07a3.8 3.8 0 00-3.2 1.76l-.02.02A13.81 13.81 0 018.34 3.96l-.03.07 18.6 18.71a13.64 13.64 0 01-9.4 1.15l.1.01zm11.3-.68l-.76-.76L7.84 2.04l.75-.75 21.06 21.18-.76.75z"/><path fill="var(--color2, #2196f3)" d="M13.87 20.27a1.6 1.6 0 000 3.2 1.6 1.6 0 000-3.2zm.38 1.98a.53.53 0 01-.91-.38c0-.3.23-.54.53-.54a.54.54 0 01.37.91z"/></symbol><symbol id="icon-smartphone" viewBox="0 0 20 32">
<path d="M17 0h-14c-1.66 0-3 1.34-3 3v26c0 1.66 1.34 3 3 3h14c1.66 0 3-1.34 3-3v-26c0-1.66-1.34-3-3-3zM3 2h14c0.56 0 1 0.44 1 1v21h-16v-21c0-0.56 0.44-1 1-1zM17 30h-14c-0.552 0-1-0.448-1-1v0-3h16v3c0 0.552-0.448 1-1 1v0z"></path>
</symbol><symbol id="icon-mail" viewBox="0 0 43 32">
<path d="M38.667 0h-34.667c-2.213 0-4 1.787-4 4v24c0 2.213 1.787 4 4 4h34.667c2.213 0 4-1.787 4-4v-24c0-2.213-1.787-4-4-4zM38.667 2.667c0.003-0 0.007-0 0.011-0 0.189 0 0.368 0.039 0.531 0.11l-0.009-0.003-17.867 15.467-17.867-15.467c0.154-0.067 0.334-0.107 0.523-0.107 0.004 0 0.007 0 0.011 0h34.666zM38.667 29.333h-34.667c-0.736 0-1.333-0.597-1.333-1.333v0-22.4l17.787 15.413c0.234 0.206 0.542 0.332 0.88 0.332s0.646-0.126 0.881-0.333l-0.001 0.001 17.787-15.413v22.4c0 0.736-0.597 1.333-1.333 1.333v0z"></path>
</symbol><symbol id="icon-close" viewBox="0 0 32 32">
<path d="M32 3.2l-3.2-3.2-12.8 12.8-12.8-12.8-3.2 3.2 12.8 12.8-12.8 12.8 3.2 3.2 12.8-12.8 12.8 12.8 3.2-3.2-12.8-12.8 12.8-12.8z"></path>
</symbol><symbol id="icon-message" viewBox="0 0 32 32">
<path fill="#fff" style="fill: var(--color1, #fff)" d="M32 0l-32 18 10.227 3.787 15.773-14.787-12 16.187v8.813l5.733-6.693 7.267 2.693 5-28z"></path>
</symbol>
<symbol id="icon-email-form" viewBox="0 0 32 32">
<path d="M26.667 5.333h-21.333c-1.476 0-2.667 1.191-2.667 2.667v16c0 1.458 1.191 2.667 2.667 2.667h21.333c1.458 0 2.667-1.209 2.667-2.667v-16c0-1.476-1.209-2.667-2.667-2.667zM26.133 11.004l-9.422 5.884c-0.202 0.127-0.448 0.202-0.711 0.202s-0.509-0.075-0.717-0.206l0.006 0.003-9.422-5.867c-0.364-0.195-0.607-0.572-0.607-1.006 0-0.628 0.509-1.138 1.138-1.138 0.255 0 0.491 0.084 0.681 0.226l-0.003-0.002 8.924 5.564 8.942-5.582c0.193-0.155 0.441-0.249 0.71-0.249 0.628 0 1.138 0.509 1.138 1.138 0 0.454-0.266 0.846-0.65 1.028l-0.007 0.003z"></path>
</symbol>
<symbol id="icon-phone-form" viewBox="0 0 32 32">
<path d="M24.889 19.769l-3.271-0.356c-0.782-0.107-1.564 0.178-2.116 0.711l-2.364 2.382c-3.67-1.894-6.586-4.81-8.429-8.372l-0.051-0.108 2.382-2.382c0.551-0.551 0.818-1.333 0.729-2.116l-0.356-3.236c-0.156-1.288-1.243-2.276-2.56-2.276-0.006 0-0.012 0-0.019 0h-2.221c-1.458 0-2.667 1.209-2.578 2.667 0.716 10.991 9.453 19.729 20.38 20.441l0.065 0.003c1.458 0.089 2.667-1.12 2.667-2.578v-2.222c0-1.316-0.96-2.4-2.258-2.56z"></path>
</symbol>
<symbol id="icon-person-form" viewBox="0 0 32 32">
<path d="M16 16c2.946 0 5.333-2.388 5.333-5.333s-2.388-5.333-5.333-5.333v0c-2.946 0-5.333 2.388-5.333 5.333s2.388 5.333 5.333 5.333v0zM16 18.667c-3.556 0-10.667 1.778-10.667 5.333v1.333c0 0.729 0.604 1.333 1.333 1.333h18.667c0.729 0 1.333-0.604 1.333-1.333v-1.333c0-3.556-7.111-5.333-10.667-5.333z"></path>
</symbol>
<symbol id="icon-cross" viewBox="0 0 32 32">
<path d="M23.736 10.304l-1.504-1.504-5.968 5.96-5.96-5.96-1.504 1.504 5.96 5.96-5.96 5.976 1.504 1.504 5.96-5.968 5.968 5.968 1.504-1.504-5.968-5.968 5.968-5.96z"></path>
</symbol>
<symbol id="icon-menu" viewBox="0 0 32 32">
<path d="M6.4 11.736v-2.136h19.2v2.136h-19.2zM6.4 17.064h19.2v-2.128h-19.2v2.128zM6.4 22.4h19.2v-2.136h-19.2v2.136z"></path>
</symbol>
</symbol></defs></svg>