<svg width="20" height="20" fill="none" xmlns="http://www.w3.org/2000/svg"><g clip-path="url(#clip0)"><path d="M20 3.8c-.74.33-1.54.54-2.36.65.85-.51 1.5-1.3 1.8-2.27-.8.47-1.67.8-2.6 1a4.1 4.1 0 00-7 3.73A11.6 11.6 0 011.4 2.62 4.13 4.13 0 002.65 8.1C2 8.1 1.35 7.9.8 7.6v.04c0 2 1.42 3.65 3.29 4.03a4.09 4.09 0 01-1.86.07 4.14 4.14 0 003.84 2.85A8.24 8.24 0 010 16.3a11.54 11.54 0 006.29 1.84c7.55 0 11.67-6.25 11.67-11.67 0-.18 0-.36-.02-.53.82-.58 1.5-1.3 2.06-2.13z" fill="#AFB1B8"/></g><defs><clipPath id="clip0"><path fill="#fff" d="M0 0h20v20H0z"/></clipPath></defs></svg>